HIERARCHY
ROOT root
{
	OFFSET	0	13.1	24.9
	CHANNELS 6  Xposition Yposition Zposition Xrotation Yrotation Zrotation
	JOINT spine_1
	{
		OFFSET	0	9.99999	0
		CHANNELS 3  Xrotation Yrotation Zrotation
		JOINT spine_2
		{
			OFFSET	0	112	-10
			CHANNELS 3  Xrotation Yrotation Zrotation
			JOINT spine_3
			{
				OFFSET	0	206.5	19.3
				CHANNELS 3  Xrotation Yrotation Zrotation
				JOINT spine_4
				{
					OFFSET	0	110.4	14.6
					CHANNELS 3  Xrotation Yrotation Zrotation
					JOINT neck_1
					{
						OFFSET	0	71.8	-50.3
						CHANNELS 3  Xrotation Yrotation Zrotation
						JOINT neck_2
						{
							OFFSET	0	86.2	-25.8
							CHANNELS 3  Xrotation Yrotation Zrotation
							JOINT head_ee
							{
								OFFSET	0	179.8	-8.7
								CHANNELS 3  Xrotation Yrotation Zrotation
								End Site
								{
									OFFSET	1	0	0
								}
							}
						}
					}
					JOINT left_clavicle
					{
						OFFSET	-43.2	22.4	-70.8
						CHANNELS 3  Xrotation Yrotation Zrotation
						JOINT left_shoulder
						{
							OFFSET	-93.9	-5.79999	48.7
							CHANNELS 3  Xrotation Yrotation Zrotation
							JOINT left_elbow
							{
								OFFSET	-291.4	-30.8	15.2
								CHANNELS 3  Xrotation Yrotation Zrotation
								JOINT left_lowarm_twist
								{
									OFFSET	-110.7	-3.89999	13.6
									CHANNELS 3  Xrotation Yrotation Zrotation
									JOINT left_hand
									{
										OFFSET	-110.7	-3.89999	13.6
										CHANNELS 3  Xrotation Yrotation Zrotation
										JOINT left_ee
										{
											OFFSET	-80.8	-5.10001	12.1
											CHANNELS 3  Xrotation Yrotation Zrotation
											End Site
											{
												OFFSET	1	0	0
											}
										}
									}
								}
							}
						}
					}
					JOINT right_clavicle
					{
						OFFSET	43.2	22.4	-70.8
						CHANNELS 3  Xrotation Yrotation Zrotation
						JOINT right_shoulder
						{
							OFFSET	93.9	-5.79999	48.7
							CHANNELS 3  Xrotation Yrotation Zrotation
							JOINT right_elbow
							{
								OFFSET	291.4	-30.8	15.2
								CHANNELS 3  Xrotation Yrotation Zrotation
								JOINT right_lowarm_twist
								{
									OFFSET	110.7	-3.89999	13.6
									CHANNELS 3  Xrotation Yrotation Zrotation
									JOINT right_hand
									{
										OFFSET	110.7	-3.89999	13.6
										CHANNELS 3  Xrotation Yrotation Zrotation
										JOINT right_ee
										{
											OFFSET	80.8	-5.10001	12.1
											CHANNELS 3  Xrotation Yrotation Zrotation
											End Site
											{
												OFFSET	1	0	0
											}
										}
									}
								}
							}
						}
					}
				}
			}
		}
	}
	JOINT left_hip
	{
		OFFSET	-82.8	-127.5	0.300001
		CHANNELS 3  Xrotation Yrotation Zrotation
		JOINT left_knee
		{
			OFFSET	-28.2	-396.7	2.2
			CHANNELS 3  Xrotation Yrotation Zrotation
			JOINT left_ankle
			{
				OFFSET	-11.7	-411.3	35.4
				CHANNELS 3  Xrotation Yrotation Zrotation
				JOINT left_toes
				{
					OFFSET	0	-60	-88.6
					CHANNELS 3  Xrotation Yrotation Zrotation
					JOINT left_foot_ee
					{
						OFFSET	-22.5	-16.5	-42.2
						CHANNELS 3  Xrotation Yrotation Zrotation
						End Site
						{
							OFFSET	1	0	0
						}
					}
				}
			}
		}
	}
	JOINT right_hip
	{
		OFFSET	82.8	-127.5	0.300001
		CHANNELS 3  Xrotation Yrotation Zrotation
		JOINT right_knee
		{
			OFFSET	28.2	-396.7	2.2
			CHANNELS 3  Xrotation Yrotation Zrotation
			JOINT right_ankle
			{
				OFFSET	11.7	-411.3	35.4
				CHANNELS 3  Xrotation Yrotation Zrotation
				JOINT right_toes
				{
					OFFSET	0	-60	-88.6
					CHANNELS 3  Xrotation Yrotation Zrotation
					JOINT right_foot_ee
					{
						OFFSET	22.5	-16.5	-42.2
						CHANNELS 3  Xrotation Yrotation Zrotation
						End Site
						{
							OFFSET	1	0	0
						}
					}
				}
			}
		}
	}
}
MOTION
Frames: 11
Frame Time: 0.02
2999.93 723.711 -1375.42 27.9059 68.007 -27.6338 -2.95216 0.369404 0.898161 -2.95176 0.311505 0.919845 -2.94602 0.0615079 0.969205 -2.94726 0.213797 0.947331 -11.5081 20.1531 -0.449648 -12.397 38.4917 5.58606 -0.0 0.0 -0.0 4.07239 8.44658 8.18104 -2.92327 -28.5962 51.8631 1.4459 -35.6103 0.464393 38.3828 -0.267829 -4.80535 0.406527 19.9479 10.5051 -0.0 0.0 -0.0 9.18626 11.5919 -18.0239 -4.78037 18.5148 -62.1473 0.494215 13.7567 -0.0596177 30.2234 -0.0593981 3.81593 4.85334 25.2439 -21.1009 0.0 0.0 0.0 -5.56078 -15.9279 8.42043 -17.2742 0.318129 2.62177 30.8969 24.3565 -4.19439 -3.49612 0.0 0.0 -0.0 0.0 -0.0 0.747299 27.7594 -5.50165 -50.6316 1.27762 -7.41641 39.0173 -10.2825 4.79125 7.0407 -0.0 -0.0 0.0 0.0 0.0 
2989.46 730.037 -1370.71 25.6747 66.6206 -25.6344 -3.1099 0.438582 1.05647 -3.10935 0.370472 1.08223 -3.10129 0.0731195 1.14154 -3.10302 0.252476 1.11567 -12.528 20.9993 2.28514 -13.6037 38.5265 8.86292 -0.0 0.0 -0.0 3.89946 8.1356 7.86408 0.432862 -29.8832 51.5642 1.50185 -36.6458 0.497381 38.0279 -0.250682 -4.76334 0.29281 20.5926 10.0514 -0.0 0.0 -0.0 8.88375 11.77 -17.3606 -5.05887 18.6491 -62.1839 0.472168 13.1649 -0.0544855 30.6342 -0.04632 3.86677 4.80249 24.7644 -21.0454 0.0 0.0 0.0 -6.62824 -14.3155 8.74924 -14.6497 0.320992 2.21915 31.7602 24.1464 -4.28644 -3.29504 0.0 0.0 -0.0 0.0 -0.0 3.31095 27.7496 -5.82341 -47.4405 1.00664 -7.00663 38.1456 -10.8356 4.71628 6.91187 -0.0 -0.0 0.0 0.0 0.0 
2982.29 740.548 -1364.99 23.3979 65.8679 -23.3572 -3.21439 0.420547 0.931954 -3.21398 0.360395 0.956823 -3.2071 0.0944643 1.01807 -3.20846 0.254056 0.990376 -13.5976 21.437 4.26804 -14.8185 38.327 11.2882 -0.0 0.0 -0.0 3.7958 7.81753 7.66834 2.63364 -30.4978 51.4068 1.56513 -37.7845 0.535658 37.7791 -0.238816 -4.73382 0.21656 20.9009 9.70616 -0.0 0.0 -0.0 8.65843 11.9196 -16.8667 -5.47958 18.6394 -61.7868 0.455011 12.7023 -0.0506453 30.9155 -0.0371545 3.90153 4.76738 24.4155 -21.0157 0.0 0.0 0.0 -7.81734 -13.3079 8.93827 -11.816 0.303382 1.78477 32.1393 23.914 -4.32291 -3.25171 0.0 0.0 -0.0 0.0 -0.0 6.84071 27.47 -7.32238 -44.3561 0.766896 -6.59704 37.5132 -11.3626 4.66205 6.83219 -0.0 -0.0 0.0 0.0 0.0 
2964.69 748.081 -1365.6 27.5471 65.7138 -27.1498 -3.82611 0.305315 0.804358 -3.82579 0.253514 0.822154 -3.82147 0.0177768 0.860167 -3.82247 0.153396 0.846566 -14.6162 21.1854 5.32855 -15.9097 37.3914 12.5532 -0.0 0.0 -0.0 3.52988 7.70043 7.18873 5.76948 -30.942 50.4243 1.78797 -41.5277 0.677941 37.3169 -0.217111 -4.67885 0.0320395 20.3522 8.39785 -0.0 0.0 -0.0 8.44927 12.2737 -16.4006 -6.10779 18.4742 -61.2466 0.35304 9.92008 -0.030639 30.8266 -0.0400676 3.89056 4.64892 23.2427 -20.8996 0.0 0.0 0.0 -12.9297 -12.7543 10.615 -9.59736 0.274615 1.44557 29.0743 25.2924 -4.00659 -4.63082 0.0 0.0 -0.0 0.0 -0.0 14.321 27.1981 -10.264 -41.5778 0.570188 -6.21773 39.6814 -12.0921 4.86702 7.39959 -0.0 -0.0 0.0 0.0 0.0 
2944.16 746.517 -1362.06 26.7558 64.7785 -26.3737 -4.19116 0.348451 0.742173 -4.1909 0.30052 0.762841 -4.18625 0.0740822 0.816544 -4.18712 0.202106 0.794599 -15.7481 21.8199 7.53121 -17.1612 37.5602 15.2559 -0.0 0.0 -0.0 3.73498 8.09966 7.56999 7.93473 -31.2265 49.6927 1.97747 -44.4041 0.807142 37.2885 -0.215791 -4.67546 0.191252 19.9404 9.20118 -0.0 0.0 -0.0 7.7997 11.9765 -15.0112 -7.12039 18.2793 -60.8658 0.386065 10.827 -0.0365859 30.7096 -0.0438781 3.8761 4.79908 23.0877 -22.0322 0.0 0.0 0.0 -15.3785 -12.3404 11.9349 -6.70058 0.217325 1.00479 28.5155 26.3538 -3.96652 -4.88291 0.0 0.0 -0.0 0.0 -0.0 18.3259 25.7869 -11.4182 -40.5937 0.504967 -6.08118 37.5045 -12.6706 4.67374 7.08503 -0.0 -0.0 0.0 0.0 0.0 
2933.36 743.991 -1359.73 24.3935 63.902 -23.7486 -4.18531 0.427963 0.492015 -4.18526 0.395788 0.51825 -4.18136 0.234291 0.608553 -4.18173 0.327459 0.563916 -16.4831 22.0783 8.70399 -17.9618 37.5558 16.713 -0.0 0.0 -0.0 3.81406 9.86665 7.76804 12.0398 -30.3411 50.2715 2.30301 -48.7572 1.04377 37.008 -0.202856 -4.64201 0.145817 17.219 7.90286 -0.0 0.0 -0.0 7.56995 12.2458 -14.5059 -8.11178 18.1074 -60.3878 0.36908 10.3612 -0.0334631 30.6259 -0.0465856 3.86575 4.89557 23.0126 -22.7501 0.0 0.0 0.0 -16.6306 -11.4589 12.2676 -3.71433 0.135011 0.553947 27.1179 27.5817 -3.82855 -5.84001 0.0 0.0 -0.0 0.0 -0.0 20.5858 25.4814 -12.5375 -36.6427 0.267108 -5.52254 37.5895 -12.5501 4.68046 7.62295 -0.0 -0.0 0.0 0.0 0.0 
2923.99 746.674 -1357.27 23.5845 63.8979 -22.6808 -4.12091 0.417103 0.436351 -4.12089 0.388492 0.462007 -4.11751 0.2437 0.552255 -4.11779 0.327859 0.506838 -16.7045 21.9861 8.50778 -18.2346 37.5318 16.5956 -0.0 0.0 -0.0 4.45786 10.0633 8.89468 12.5575 -30.372 48.3341 2.59299 -52.0898 1.26737 36.9073 -0.198251 -4.62999 0.117591 17.5477 7.85465 -0.0 0.0 -0.0 7.31004 12.8603 -13.9186 -9.0598 17.892 -60.4149 0.333438 9.37936 -0.0273532 30.4326 -0.0527813 3.84184 4.88211 22.3595 -23.0488 0.0 0.0 0.0 -17.8242 -11.6317 12.1497 -1.20252 0.0476432 0.17839 25.6702 27.176 -3.63926 -5.79369 0.0 0.0 -0.0 0.0 -0.0 22.2018 25.646 -12.8911 -34.853 0.172192 -5.26447 37.4672 -12.7264 4.67082 7.99023 -0.0 -0.0 0.0 0.0 0.0 
2908.09 741.513 -1350.72 24.4363 64.4209 -23.9802 -4.12579 0.300379 0.473574 -4.1257 0.269636 0.491728 -4.12311 0.121216 0.547544 -4.12347 0.206168 0.52153 -17.3614 21.5368 8.29825 -18.9533 36.9081 16.4731 -0.0 0.0 -0.0 4.73504 9.7962 9.37619 15.2196 -29.6133 48.6458 2.90939 -55.2342 1.52234 37.0033 -0.202639 -4.64145 0.0230233 17.0451 7.081 -0.0 0.0 -0.0 6.99357 12.2814 -13.2697 -9.80356 17.3766 -60.2272 0.260558 7.35483 -0.0167465 30.4929 -0.0508586 3.8493 4.89679 22.3178 -23.1769 0.0 0.0 0.0 -18.609 -11.4822 13.2935 -0.974777 0.0389081 0.14453 24.4468 27.6597 -3.49642 -5.66472 0.0 0.0 -0.0 0.0 -0.0 25.0703 26.9974 -14.2369 -31.0182 -0.00372373 -4.70248 37.2016 -13.7354 4.65708 8.2113 -0.0 -0.0 0.0 0.0 0.0 
2891.49 742.31 -1349.26 23.5599 64.5747 -23.2106 -4.26649 0.250555 0.447894 -4.26641 0.221547 0.462929 -4.26437 0.0818603 0.50664 -4.26469 0.160846 0.487354 -18.4935 21.2605 7.33207 -20.3739 37.0822 15.9914 -0.0 0.0 -0.0 4.84063 10.1419 9.56385 17.0403 -29.0131 48.5466 3.18348 -57.608 1.75074 36.5662 -0.182813 -4.58921 -0.0862899 15.7586 5.90345 -0.0 0.0 -0.0 6.80103 12.207 -12.8625 -10.8097 16.91 -60.0047 0.297633 8.38736 -0.0218238 30.0342 -0.0652969 3.79249 5.00434 22.1958 -24.0093 0.0 0.0 0.0 -19.0704 -11.1874 13.8024 -0.671578 0.0270697 0.0995059 22.9859 28.1403 -3.31949 -5.69518 0.0 0.0 -0.0 0.0 -0.0 27.1002 28.6505 -14.9861 -27.4749 -0.132471 -4.17403 36.8384 -14.4658 4.63146 8.31712 -0.0 -0.0 0.0 0.0 0.0 
2877.41 740.393 -1349.21 22.7401 64.2736 -22.4194 -4.23533 0.225502 0.350634 -4.23529 0.202733 0.364273 -4.23384 0.091876 0.406637 -4.23404 0.154943 0.387024 -17.4081 21.2162 6.40918 -19.1629 37.3096 14.7008 -0.0 0.0 -0.0 5.15335 10.4493 10.1107 18.6185 -28.4143 48.5019 3.47222 -59.8124 1.99752 36.852 -0.195734 -4.62339 -0.11494 14.3054 5.14737 -0.0 0.0 -0.0 6.74485 12.3932 -12.7329 -11.2872 16.8758 -59.9025 0.221503 6.26195 -0.0121163 29.7704 -0.0733937 3.75977 5.06632 21.9953 -24.5708 0.0 0.0 0.0 -19.8815 -11.2964 14.0371 -0.741639 0.0298263 0.109904 21.9262 28.4132 -3.18675 -5.47813 0.0 0.0 -0.0 0.0 -0.0 28.0098 28.9905 -15.168 -23.9514 -0.22784 -3.64179 37.4818 -14.373 4.69161 8.50368 -0.0 -0.0 0.0 0.0 0.0 
2858.16 735.067 -1344.74 21.8484 64.0429 -21.3327 -4.16868 0.193444 0.302256 -4.16864 0.173818 0.313953 -4.16758 0.078716 0.350118 -4.16772 0.133023 0.333293 -17.1857 20.9204 4.94374 -18.9863 37.4945 13.1799 -0.0 0.0 -0.0 5.33235 10.2387 10.4244 20.2041 -27.9654 48.7587 3.69072 -61.3069 2.18783 36.2115 -0.167017 -4.5467 -0.495189 13.6008 2.48057 -0.0 0.0 -0.0 6.56762 12.8767 -12.3283 -12.7136 16.1328 -59.2322 0.227923 6.44194 -0.0128266 28.914 -0.0986405 3.65329 5.15265 21.4009 -25.5507 0.0 0.0 0.0 -20.4693 -10.1431 14.7696 -1.41038 0.0554977 0.209322 23.6834 28.039 -3.40745 -3.80669 0.0 0.0 -0.0 0.0 -0.0 29.1153 29.5593 -15.3639 -20.0289 -0.295295 -3.04378 36.9841 -15.1192 4.6542 8.58687 -0.0 -0.0 0.0 0.0 0.0 
